<svg width="47" height="34" viewBox="0 0 47 34" fill="none" xmlns="http://www.w3.org/2000/svg">
<path d="M5.6767 1.19654L42.4642 1.72776V5.97759L38.5464 6.64162C38.5464 6.64162 36.5543 31.5429 36.2887 31.7421C36.0231 31.9414 14.7076 32.1406 14.7076 32.1406L10.657 31.7421L8.93047 26.9611L7.27819 5.97759H4.21582L4.61424 1.19653L5.6767 1.19654Z" fill="#FCF0D2"/>
<path d="M20.6804 1.82046C20.6804 1.82046 17.493 4.74221 18.4227 5.47265C19.3523 6.20309 9.65741 6.26949 9.65741 6.26949L12.5792 32.6317H35.3556L38.2773 6.26949L41.6639 5.47265V0.984131L20.6804 1.82046Z" fill="#F8BF2F"/>
<path d="M6.3399 7.44344C6.3399 7.44344 5.20464 7.48643 4.48426 7.21269C3.76389 6.93894 3.52751 6.80928 3.41225 6.11772C3.29699 5.42616 3.41225 0.93102 3.41225 0.93102C3.41225 0.93102 3.87329 -0.106319 4.96826 0.00893968C6.06323 0.124199 42.6583 0.00893968 42.6583 0.00893968C42.6583 0.00893968 43.5803 0.642869 43.638 1.16154C43.6956 1.68021 43.638 6.92454 43.638 6.92454C43.638 6.92454 43.1769 7.32795 42.6583 7.21269C42.1396 7.09743 41.1505 7.21269 41.1505 7.21269L39.439 29.1305C39.439 29.1305 39.0698 33.0534 35.6084 33.4226C32.3888 33.766 20.8237 33.571 13.5432 33.4501C12.4612 33.4322 11.4068 33.1055 10.504 32.5087C9.64794 31.9427 8.80298 31.3288 8.37882 30.2381C7.7327 28.5767 6.3399 7.44344 6.3399 7.44344ZM5.98666 4.84889H41.0926V2.52619H5.98666V4.84889ZM8.62119 7.23935C8.42198 7.23935 9.94926 27.2268 10.2149 29.0197C10.4805 30.8126 12.9374 31.3438 12.9374 31.3438H34.1865L36.5106 7.23935C36.5106 7.23935 8.8204 7.23935 8.62119 7.23935Z" fill="#010000"/>
<path d="M4.0305 2.29451L2.52797 1.6397C2.52797 1.6397 0.791217 1.15932 0.0891263 3.52426C-0.612965 5.88919 3.0328 14.3143 4.0305 15.8293C5.02821 17.3443 11.0023 26.2313 22.0387 27.4815C33.075 28.7318 40.3695 19.6048 42.1052 17.2296C43.841 14.8543 47.1755 7.40688 46.9928 3.52425C46.614 1.32262 44.0012 1.43906 43.609 1.99939C43.2168 2.55972 43.5753 3.30012 44.9481 3.52425C46.3209 3.74839 45.9287 3.81183 45.9287 3.81183C45.9287 3.81183 43.0713 24.6533 23.4956 25.1427C4.1423 24.6088 1.19205 3.81183 1.19205 3.81183C1.19205 3.81183 1.48941 3.45406 2.08989 3.39947C2.69038 3.34488 3.18168 3.263 3.50922 3.20841C3.83675 3.15382 4.0305 2.29451 4.0305 2.29451Z" fill="#010000"/>
<path d="M23.6025 11.8198L26.4985 17.3299L24.6276 20.5846L20.8603 19.9183L20.5015 16.9198L23.6025 11.8198Z" fill="#3D58D8"/>
<path d="M22.2065 14.365C22.2065 14.365 22.0271 16.7484 22.2065 17.6454C22.3859 18.5424 23.0717 20.1057 23.0717 20.1057C23.0717 20.1057 22.0271 19.9007 21.4633 19.3368C20.8995 18.773 20.8931 18.2989 20.9508 17.3122C21.1109 16.223 22.2065 14.365 22.2065 14.365Z" fill="#FDECD8"/>
<path d="M23.3568 12.4642C23.3568 12.4642 25.5627 16.084 25.6607 17.5841C25.7587 19.0842 24.4976 20.0625 23.7136 20.0951C22.9297 20.1277 21.0677 19.9646 20.9371 17.7797C20.8064 15.5948 23.3568 12.4642 23.3568 12.4642ZM19.4205 18.1284C19.6418 21.3333 22.7959 21.5725 24.124 21.5247C25.452 21.4768 27.5883 20.0418 27.4223 17.8414C27.2774 15.92 25.4914 13.2474 24.1253 11.2272C23.9808 11.0135 23.7451 10.8792 23.4876 10.8638C23.2301 10.8484 22.9801 10.9536 22.8111 11.1486C21.1339 13.0836 19.2255 15.3051 19.4205 18.1284Z" fill="#010001"/>
</svg>
