<svg width="31" height="31" viewBox="0 0 31 31" fill="none" xmlns="http://www.w3.org/2000/svg">
<rect width="31" height="31" rx="2" fill="#3D58D8"/>
<path d="M5.2611 7.68738L26.3944 7.99255V10.4339L24.1437 10.8154C24.1437 10.8154 22.9993 25.1204 22.8467 25.2349C22.6941 25.3493 10.4491 25.4637 10.4491 25.4637L8.1221 25.2349L7.13029 22.4883L6.18111 10.4339H4.42188L4.65075 7.68738L5.2611 7.68738Z" fill="#FCF0D2"/>
<path d="M13.8803 8.04575C13.8803 8.04575 12.0493 9.7242 12.5833 10.1438C13.1174 10.5634 7.54797 10.6016 7.54797 10.6016L9.22643 25.7458H22.3107L23.9892 10.6016L25.9347 10.1438V7.56531L13.8803 8.04575Z" fill="#F8BF2F"/>
<path d="M5.64205 11.276C5.64205 11.276 4.98988 11.3007 4.57605 11.1435C4.16222 10.9862 4.02643 10.9117 3.96021 10.5144C3.894 10.1172 3.96021 7.53484 3.96021 7.53484C3.96021 7.53484 4.22507 6.93892 4.85409 7.00514C5.48312 7.07135 26.5058 7.00514 26.5058 7.00514C26.5058 7.00514 27.0355 7.36931 27.0686 7.66727C27.1017 7.96523 27.0686 10.9779 27.0686 10.9779C27.0686 10.9779 26.8038 11.2097 26.5058 11.1435C26.2078 11.0772 25.6396 11.1435 25.6396 11.1435L24.6564 23.7345C24.6564 23.7345 24.4443 25.9881 22.4559 26.2002C20.6063 26.3975 13.9626 26.2855 9.78015 26.216C9.15855 26.2057 8.55282 26.0181 8.03422 25.6752C7.54242 25.3501 7.05702 24.9974 6.81335 24.3708C6.44218 23.4164 5.64205 11.276 5.64205 11.276ZM5.43913 9.78553H25.6063V8.45122H5.43913V9.78553ZM6.95258 11.1588C6.83814 11.1588 7.71552 22.6409 7.8681 23.6709C8.02069 24.7008 9.43212 25.006 9.43212 25.006H21.6391L22.9742 11.1588C22.9742 11.1588 7.06702 11.1588 6.95258 11.1588Z" fill="#010000"/>
<path d="M4.3154 8.31815L3.45224 7.94198C3.45224 7.94198 2.45453 7.66601 2.0512 9.02459C1.64787 10.3832 3.74224 15.2231 4.3154 16.0935C4.88855 16.9638 8.32048 22.0691 14.6605 22.7873C21.0006 23.5055 25.191 18.2624 26.1881 16.8979C27.1853 15.5334 29.1008 11.255 28.9959 9.02459C28.7782 7.75983 27.2773 7.82671 27.052 8.14861C26.8266 8.4705 27.0326 8.89584 27.8213 9.02459C28.6099 9.15335 28.3846 9.1898 28.3846 9.1898C28.3846 9.1898 26.7431 21.1626 15.4975 21.4437C4.37962 21.137 2.6848 9.1898 2.6848 9.1898C2.6848 9.1898 2.85562 8.98427 3.20058 8.95291C3.54554 8.92155 3.82778 8.87451 4.01593 8.84315C4.20409 8.81179 4.3154 8.31815 4.3154 8.31815Z" fill="#010000"/>
<path d="M15.5589 13.7902L17.2225 16.9555L16.1478 18.8253L13.9836 18.4425L13.7775 16.7199L15.5589 13.7902Z" fill="#3D58D8"/>
<path d="M14.757 15.2522C14.757 15.2522 14.6539 16.6214 14.757 17.1367C14.86 17.652 15.254 18.55 15.254 18.55C15.254 18.55 14.6539 18.4323 14.33 18.1084C14.0061 17.7845 14.0024 17.5121 14.0356 16.9453C14.1276 16.3196 14.757 15.2522 14.757 15.2522Z" fill="#FDECD8"/>
<path d="M15.4178 14.1602C15.4178 14.1602 16.685 16.2397 16.7413 17.1014C16.7976 17.9632 16.0731 18.5252 15.6228 18.5439C15.1724 18.5627 14.1028 18.469 14.0277 17.2138C13.9527 15.9587 15.4178 14.1602 15.4178 14.1602ZM13.1565 17.4141C13.2836 19.2553 15.0956 19.3927 15.8585 19.3652C16.6214 19.3377 17.8487 18.5133 17.7533 17.2492C17.67 16.1455 16.6441 14.6102 15.8592 13.4496C15.7762 13.3268 15.6408 13.2497 15.4929 13.2408C15.345 13.232 15.2014 13.2925 15.1043 13.4044C14.1408 14.5161 13.0445 15.7923 13.1565 17.4141Z" fill="#010001"/>
</svg>
