<svg width="27" height="20" viewBox="0 0 27 20" fill="none" xmlns="http://www.w3.org/2000/svg">
<path d="M3.2611 0.767214L24.3944 1.07239V3.51378L22.1437 3.89524C22.1437 3.89524 20.9993 18.2002 20.8467 18.3147C20.6941 18.4291 8.44905 18.5436 8.44905 18.5436L6.1221 18.3147L5.13029 15.5681L4.18111 3.51377H2.42188L2.65075 0.767212L3.2611 0.767214Z" fill="#FCF0D2"/>
<path d="M11.8803 1.12558C11.8803 1.12558 10.0493 2.80404 10.5833 3.22365C11.1174 3.64326 5.54797 3.68141 5.54797 3.68141L7.22643 18.8256H20.3107L21.9892 3.68141L23.9347 3.22365V0.645142L11.8803 1.12558Z" fill="#F8BF2F"/>
<path d="M3.64205 4.35585C3.64205 4.35585 2.98988 4.38055 2.57605 4.22329C2.16222 4.06604 2.02643 3.99155 1.96021 3.59427C1.894 3.19699 1.96021 0.614675 1.96021 0.614675C1.96021 0.614675 2.22507 0.018757 2.85409 0.0849695C3.48312 0.151182 24.5058 0.0849695 24.5058 0.0849695C24.5058 0.0849695 25.0355 0.449142 25.0686 0.747101C25.1017 1.04506 25.0686 4.05776 25.0686 4.05776C25.0686 4.05776 24.8038 4.28951 24.5058 4.22329C24.2078 4.15708 23.6396 4.22329 23.6396 4.22329L22.6564 16.8144C22.6564 16.8144 22.4443 19.068 20.4559 19.2801C18.6063 19.4773 11.9626 19.3653 7.78015 19.2959C7.15855 19.2855 6.55282 19.0979 6.03422 18.755C5.54242 18.4299 5.05702 18.0772 4.81335 17.4507C4.44218 16.4962 3.64205 4.35585 3.64205 4.35585ZM3.43913 2.86536H23.6063V1.53105H3.43913V2.86536ZM4.95258 4.23861C4.83814 4.23861 5.71552 15.7208 5.8681 16.7507C6.02069 17.7807 7.43212 18.0859 7.43212 18.0859H19.6391L20.9742 4.23861C20.9742 4.23861 5.06702 4.23861 4.95258 4.23861Z" fill="#010000"/>
<path d="M2.3154 1.39798L1.45224 1.02181C1.45224 1.02181 0.454529 0.745848 0.0512002 2.10443C-0.352129 3.46301 1.74224 8.30295 2.3154 9.17329C2.88855 10.0436 6.32048 15.1489 12.6605 15.8671C19.0006 16.5853 23.191 11.3422 24.1881 9.97769C25.1853 8.61319 27.1008 4.33487 26.9959 2.10443C26.7782 0.83966 25.2773 0.906548 25.052 1.22844C24.8266 1.55033 25.0326 1.97567 25.8213 2.10443C26.6099 2.23318 26.3846 2.26963 26.3846 2.26963C26.3846 2.26963 24.7431 14.2424 13.4975 14.5235C2.37962 14.2168 0.684797 2.26963 0.684797 2.26963C0.684797 2.26963 0.855619 2.0641 1.20058 2.03274C1.54554 2.00138 1.82778 1.95434 2.01593 1.92298C2.20409 1.89162 2.3154 1.39798 2.3154 1.39798Z" fill="#010000"/>
<path d="M13.5589 6.87L15.2225 10.0353L14.1478 11.9051L11.9836 11.5223L11.7775 9.79978L13.5589 6.87Z" fill="#3D58D8"/>
<path d="M12.757 8.33203C12.757 8.33203 12.6539 9.70123 12.757 10.2165C12.86 10.7318 13.254 11.6299 13.254 11.6299C13.254 11.6299 12.6539 11.5121 12.33 11.1882C12.0061 10.8643 12.0024 10.5919 12.0356 10.0251C12.1276 9.39941 12.757 8.33203 12.757 8.33203Z" fill="#FDECD8"/>
<path d="M13.4178 7.24007C13.4178 7.24007 14.685 9.31951 14.7413 10.1813C14.7976 11.043 14.0731 11.605 13.6228 11.6238C13.1724 11.6425 12.1028 11.5488 12.0277 10.2937C11.9527 9.03851 13.4178 7.24007 13.4178 7.24007ZM11.1565 10.494C11.2836 12.3351 13.0956 12.4725 13.8585 12.445C14.6214 12.4175 15.8487 11.5931 15.7533 10.3291C15.67 9.22531 14.6441 7.69001 13.8592 6.52944C13.7762 6.40668 13.6408 6.32953 13.4929 6.32068C13.345 6.31183 13.2014 6.37229 13.1043 6.48427C12.1408 7.59591 11.0445 8.87209 11.1565 10.494Z" fill="#010001"/>
</svg>
