<svg width="49" height="36" viewBox="0 0 49 36" fill="none" xmlns="http://www.w3.org/2000/svg">
<path d="M6.6767 2.19654L43.4642 2.72776V6.97759L39.5464 7.64162C39.5464 7.64162 37.5543 32.5429 37.2887 32.7421C37.0231 32.9414 15.7076 33.1406 15.7076 33.1406L11.657 32.7421L9.93047 27.9611L8.27819 6.97759H5.21582L5.61424 2.19653L6.6767 2.19654Z" fill="#FCF0D2"/>
<path d="M21.6804 2.82046C21.6804 2.82046 18.493 5.74221 19.4227 6.47265C20.3523 7.20309 10.6574 7.26949 10.6574 7.26949L13.5792 33.6317H36.3556L39.2773 7.26949L42.6639 6.47265V1.98413L21.6804 2.82046Z" fill="#F8BF2F"/>
<path d="M7.3399 8.44344C7.3399 8.44344 6.20464 8.48643 5.48426 8.21269C4.76389 7.93894 4.52751 7.80928 4.41225 7.11772C4.29699 6.42616 4.41225 1.93102 4.41225 1.93102C4.41225 1.93102 4.87329 0.893681 5.96826 1.00894C7.06323 1.1242 43.6583 1.00894 43.6583 1.00894C43.6583 1.00894 44.5803 1.64287 44.638 2.16154C44.6956 2.68021 44.638 7.92454 44.638 7.92454C44.638 7.92454 44.1769 8.32795 43.6583 8.21269C43.1396 8.09743 42.1505 8.21269 42.1505 8.21269L40.439 30.1305C40.439 30.1305 40.0698 34.0534 36.6084 34.4226C33.3888 34.766 21.8237 34.571 14.5432 34.4501C13.4612 34.4322 12.4068 34.1055 11.504 33.5087C10.6479 32.9427 9.80298 32.3288 9.37882 31.2381C8.7327 29.5767 7.3399 8.44344 7.3399 8.44344ZM6.98666 5.84889H42.0926V3.52619H6.98666V5.84889ZM9.62119 8.23935C9.42198 8.23935 10.9493 28.2268 11.2149 30.0197C11.4805 31.8126 13.9374 32.3438 13.9374 32.3438H35.1865L37.5106 8.23935C37.5106 8.23935 9.8204 8.23935 9.62119 8.23935Z" fill="#010000" stroke="black" stroke-linecap="round"/>
<path d="M5.0305 3.29451L3.52797 2.6397C3.52797 2.6397 1.79122 2.15932 1.08913 4.52426C0.387035 6.88919 4.0328 15.3143 5.0305 16.8293C6.02821 18.3443 12.0023 27.2313 23.0387 28.4815C34.075 29.7318 41.3695 20.6048 43.1052 18.2296C44.841 15.8543 48.1755 8.40688 47.9928 4.52425C47.614 2.32262 45.0012 2.43906 44.609 2.99939C44.2168 3.55972 44.5753 4.30012 45.9481 4.52425C47.3209 4.74839 46.9287 4.81183 46.9287 4.81183C46.9287 4.81183 44.0713 25.6533 24.4956 26.1427C5.1423 25.6088 2.19205 4.81183 2.19205 4.81183C2.19205 4.81183 2.48941 4.45406 3.08989 4.39947C3.69038 4.34488 4.18168 4.263 4.50922 4.20841C4.83675 4.15382 5.0305 3.29451 5.0305 3.29451Z" fill="#010000" stroke="black" stroke-linecap="round"/>
<path d="M24.6025 12.8198L27.4985 18.3299L25.6276 21.5846L21.8603 20.9183L21.5015 17.9198L24.6025 12.8198Z" fill="#3D58D8" stroke="black" stroke-linecap="round"/>
<path d="M23.2065 15.365C23.2065 15.365 23.0271 17.7484 23.2065 18.6454C23.3859 19.5424 24.0717 21.1057 24.0717 21.1057C24.0717 21.1057 23.0271 20.9007 22.4633 20.3368C21.8995 19.773 21.8931 19.2989 21.9508 18.3122C22.1109 17.223 23.2065 15.365 23.2065 15.365Z" fill="#FDECD8"/>
<path d="M24.3568 13.4642C24.3568 13.4642 26.5627 17.084 26.6607 18.5841C26.7587 20.0842 25.4976 21.0625 24.7136 21.0951C23.9297 21.1277 22.0677 20.9646 21.9371 18.7797C21.8064 16.5948 24.3568 13.4642 24.3568 13.4642ZM20.4205 19.1284C20.6418 22.3333 23.7959 22.5725 25.124 22.5247C26.452 22.4768 28.5883 21.0418 28.4223 18.8414C28.2774 16.92 26.4914 14.2474 25.1253 12.2272C24.9808 12.0135 24.7451 11.8792 24.4876 11.8638C24.2301 11.8484 23.9801 11.9536 23.8111 12.1486C22.1339 14.0836 20.2255 16.3051 20.4205 19.1284Z" fill="#010001" stroke="black" stroke-linecap="round"/>
</svg>
