<svg width="213" height="301" viewBox="0 0 213 301" fill="none" xmlns="http://www.w3.org/2000/svg">
<path d="M26.5188 154.683L191.892 157.072V176.176L174.28 179.161C174.28 179.161 165.325 291.101 164.131 291.997C162.937 292.892 67.1158 293.788 67.1158 293.788L48.9069 291.997L41.1457 270.504L33.7181 176.176H19.9517L21.7427 154.683L26.5188 154.683Z" fill="#FCF0D2"/>
<path d="M93.9661 157.488C93.9661 157.488 79.6377 170.622 83.8168 173.906C87.9959 177.189 44.4138 177.488 44.4138 177.488L57.5481 295.995H159.936L173.071 177.488L188.294 173.906V153.728L93.9661 157.488Z" fill="#F8BF2F"/>
<path d="M29.5002 182.765C29.5002 182.765 24.3968 182.958 21.1585 181.728C17.9202 180.497 16.8575 179.914 16.3394 176.806C15.8213 173.697 16.3394 153.489 16.3394 153.489C16.3394 153.489 18.412 148.826 23.3342 149.344C28.2565 149.863 192.764 149.344 192.764 149.344C192.764 149.344 196.909 152.194 197.168 154.526C197.427 156.857 197.168 180.432 197.168 180.432C197.168 180.432 195.096 182.246 192.764 181.728C190.433 181.21 185.986 181.728 185.986 181.728L178.293 280.256C178.293 280.256 176.633 297.891 161.073 299.551C146.599 301.095 94.6103 300.218 61.8819 299.675C57.0177 299.594 52.2777 298.125 48.2196 295.442C44.3711 292.898 40.5727 290.139 38.666 285.235C35.7614 277.767 29.5002 182.765 29.5002 182.765ZM27.9123 171.102H185.726V160.66H27.9123V171.102ZM39.7555 181.848C38.8599 181.848 45.7256 271.698 46.9196 279.758C48.1137 287.818 59.1584 290.206 59.1584 290.206H154.681L165.129 181.848C165.129 181.848 40.651 181.848 39.7555 181.848Z" fill="#010000" stroke="black" stroke-linecap="round"/>
<path d="M19.1186 159.619L12.3641 156.675C12.3641 156.675 4.5568 154.516 1.40065 165.147C-1.7555 175.778 14.6335 213.652 19.1186 220.463C23.6036 227.273 50.4593 267.223 100.072 272.844C149.684 278.464 182.475 237.435 190.278 226.757C198.081 216.08 213.071 182.601 212.249 165.147C210.546 155.25 198.801 155.773 197.038 158.292C195.275 160.811 196.887 164.139 203.058 165.147C209.229 166.155 207.466 166.44 207.466 166.44C207.466 166.44 194.621 260.13 106.621 262.33C19.6211 259.93 6.35871 166.44 6.35871 166.44C6.35871 166.44 7.69544 164.831 10.3948 164.586C13.0942 164.341 15.3028 163.973 16.7752 163.727C18.2476 163.482 19.1186 159.619 19.1186 159.619Z" fill="#010000" stroke="black" stroke-linecap="round"/>
<path d="M107.102 202.439L120.12 227.209L111.71 241.84L94.7745 238.845L93.1616 225.365L107.102 202.439Z" fill="#3D58D8" stroke="black" stroke-linecap="round"/>
<path d="M100.826 213.88C100.826 213.88 100.02 224.594 100.826 228.627C101.633 232.659 104.715 239.686 104.715 239.686C104.715 239.686 100.02 238.765 97.4851 236.23C94.9505 233.696 94.9217 231.564 95.181 227.129C95.901 222.233 100.826 213.88 100.826 213.88Z" fill="#FDECD8"/>
<path d="M105.997 205.335C105.997 205.335 115.914 221.607 116.354 228.351C116.795 235.094 111.126 239.492 107.601 239.639C104.077 239.785 95.707 239.052 95.1197 229.23C94.5323 219.408 105.997 205.335 105.997 205.335ZM88.302 230.798C89.297 245.205 103.476 246.28 109.446 246.065C115.416 245.85 125.019 239.399 124.273 229.507C123.622 220.87 115.593 208.856 109.452 199.774C108.802 198.814 107.743 198.21 106.585 198.141C105.428 198.071 104.304 198.545 103.544 199.421C96.0047 208.12 87.4255 218.106 88.302 230.798Z" fill="#010001" stroke="black" stroke-linecap="round"/>
<path d="M99.8951 4.60806L131.552 15.1494L141.808 24.5511L158.617 27.9699L171.438 43.6394L175.426 56.175L193.09 64.722L197.784 81.2462L184.543 98.3403H35.5402L15.6091 84.95V64.722L28.7026 50.7619L43.2325 49.0525L52.6342 52.4652L54.0587 35.6622C54.0587 35.6622 72.2923 15.1494 73.4319 15.1494C74.5715 15.1494 99.8951 4.60806 99.8951 4.60806Z" fill="#F9F8FB" stroke="black" stroke-linecap="round"/>
<path d="M45.7125 98.6581C45.7125 98.6581 26.6649 89.9866 26.5206 76.4224C26.3763 62.8582 35.1786 59.2507 37.9203 57.952C40.662 56.6533 47.5884 55.6432 54.0819 59.5393C58.0448 61.9171 60.7422 63.4579 60.7422 63.4579C60.7422 63.4579 59.421 29.9577 89.0025 18.2694C118.584 6.58113 139.075 26.9274 139.075 26.9274L122.094 43.5686L121.614 56.2204C121.614 56.2204 126.521 35.7298 147.733 34.4311C168.945 33.1324 170.532 56.2204 170.532 56.2204L184.096 59.5393L193.332 68.1973L194.919 86.0905L177.314 101.242L73.5624 100.232L45.7125 98.6581Z" fill="#3D58D8"/>
<path d="M35.447 104.638C18.106 99.1997 9.6825 90.5537 9.40081 72.5255C9.11912 54.4974 29.6825 37.596 47.429 45.2016C48.1232 34.7887 55.7893 19.9688 68.9139 10.3381C77.0922 4.33689 88.3576 0.888169 98.4149 0.131169C124.612 -1.84066 144.534 19.0325 143.485 21.5396C144.628 21.2579 155.288 18.4753 161.795 23.7931C175.035 31.9621 178.978 45.2016 177.57 51.9621C179.542 50.8354 204.33 55.3424 201.795 79.2861C199.26 103.23 177.57 104.638 177.57 104.638C177.57 104.638 41.0351 105.296 35.447 104.638ZM38.1007 94.6125C52.7474 97.8993 179.734 94.6125 179.734 94.6125C179.734 94.6125 200.053 88.8356 189.694 67.72C181.726 54.971 167.583 64.732 167.583 64.732C167.583 64.732 174.953 38.4372 154.037 31.6643C133.121 24.8914 122.364 46.0069 121.965 48.1981C120.571 40.8276 127.344 28.2778 135.113 24.4929C130.133 19.9113 110.81 4.57263 89.8935 11.1463C68.9772 17.72 54.6843 43.7659 55.6305 50.1902C61.1584 57.2121 61.009 64.732 61.009 64.732C61.009 64.732 45.0728 47.0029 31.527 54.7718C17.9812 62.5407 19.3542 76.0866 19.9518 80.6682C20.5494 85.2499 27.6371 94.1145 38.1007 94.6125Z" fill="black"/>
<path d="M171.469 115.008C172.585 115.008 173.659 115.432 174.474 116.194C175.682 117.323 176.866 118.281 176.043 120.954C175.054 124.168 167.46 133.532 162.741 139.35C161.904 140.382 160.624 140.951 159.297 140.882C157.385 140.782 154.5 140.516 153.746 139.197C152.418 136.872 156.015 133.047 159.279 128.477C161.833 124.901 164.357 120.309 167.315 116.623C168.134 115.602 169.373 115.008 170.682 115.008L171.469 115.008ZM142.82 115.008C143.936 115.008 145.01 115.432 145.825 116.194C147.033 117.323 148.217 118.281 147.395 120.954C146.406 124.168 138.812 133.532 134.092 139.35C133.255 140.382 131.975 140.951 130.648 140.882C128.736 140.782 125.851 140.516 125.097 139.197C123.769 136.872 127.366 133.047 130.63 128.477C133.184 124.901 135.708 120.309 138.666 116.623C139.485 115.602 140.724 115.008 142.034 115.008L142.82 115.008ZM114.442 115.008C115.558 115.008 116.632 115.432 117.447 116.194C118.655 117.323 119.839 118.281 119.016 120.954C118.027 124.168 110.433 133.532 105.714 139.35C104.877 140.382 103.597 140.951 102.27 140.882C100.358 140.782 97.4728 140.516 96.719 139.197C95.3907 136.872 98.9879 133.047 102.252 128.477C104.806 124.901 107.33 120.309 110.288 116.623C111.107 115.602 112.346 115.008 113.655 115.008L114.442 115.008ZM86.1986 115.008C87.3145 115.008 88.3886 115.432 89.2036 116.194C90.4115 117.323 91.5954 118.281 90.7731 120.954C89.784 124.168 82.1902 133.532 77.4705 139.35C76.6334 140.382 75.3533 140.951 74.0264 140.882C72.1147 140.782 69.2295 140.516 68.4758 139.197C67.1475 136.872 70.7446 133.047 74.0084 128.477C76.5624 124.901 79.0868 120.309 82.0444 116.623C82.8638 115.602 84.1025 115.008 85.4119 115.008L86.1986 115.008ZM58.0905 115.008C59.2064 115.008 60.2805 115.432 61.0955 116.194C62.3034 117.323 63.4873 118.281 62.665 120.954C61.6759 124.168 54.0821 133.532 49.3624 139.35C48.5253 140.382 47.2452 140.951 45.9183 140.882C44.0066 140.782 41.1214 140.516 40.3677 139.197C39.0394 136.872 42.6365 133.047 45.9004 128.477C48.4543 124.901 50.9787 120.309 53.9363 116.623C54.7557 115.602 55.9944 115.008 57.3038 115.008L58.0905 115.008Z" fill="#010000"/>
</svg>
