<svg width="208" height="35" viewBox="0 0 208 35" fill="none" xmlns="http://www.w3.org/2000/svg">
<path d="M61.7423 28.7375H58V11.282H64.4337C65.6811 11.282 66.7961 11.5297 67.7787 12.0253C68.7613 12.5209 69.5388 13.2215 70.1112 14.1271C70.6837 15.0328 70.9699 16.1094 70.9699 17.3568C70.9699 18.6213 70.6837 19.7064 70.1112 20.6121C69.5388 21.5178 68.7613 22.2141 67.7787 22.7011C66.7961 23.1882 65.6811 23.4317 64.4337 23.4317H60.9221V19.8175H64.1517C65.0916 19.8175 65.8221 19.6082 66.3433 19.1895C66.8645 18.7709 67.1251 18.1599 67.1251 17.3568C67.1251 16.5537 66.8645 15.9428 66.3433 15.5241C65.8221 15.1054 65.0916 14.8961 64.1517 14.8961H60.8964L61.7423 14.0502V28.7375ZM71.1493 28.7375H67.0482L63.3315 21.6374H67.4327L71.1493 28.7375ZM75.9426 25.4822V22.0219H84.1449V25.4822H75.9426ZM75.8913 28.7375H72.1234L78.3264 11.282H82.4532L88.3486 28.7375H84.555L79.7874 13.8452H81.0178L75.8913 28.7375ZM93.8852 11.282V28.7375H90.1429V11.282H93.8852ZM112.033 28.7375H108.649L99.0885 15.7932L100.703 15.3575V28.7375H96.961V11.282H100.37L109.726 23.9956L108.29 24.2519V11.282H112.033V28.7375ZM121.824 28.7375H115.109V11.282H121.363C122.798 11.282 123.952 11.4614 124.823 11.8202C125.695 12.1791 126.331 12.7131 126.733 13.4223C127.134 14.1314 127.335 15.0157 127.335 16.0752C127.335 16.9125 127.152 17.6516 126.784 18.2924C126.417 18.9332 125.917 19.433 125.285 19.7919C124.652 20.1507 123.935 20.3301 123.132 20.3301L123.208 19.5099C124.217 19.5099 125.054 19.6979 125.72 20.0738C126.387 20.4498 126.891 20.9624 127.233 21.6118C127.575 22.2611 127.745 22.9959 127.745 23.8161C127.745 25.4566 127.246 26.687 126.246 27.5072C125.246 28.3274 123.772 28.7375 121.824 28.7375ZM117.621 14.8705L118.851 13.2044V26.6357L117.518 25.149H121.773C122.44 25.149 122.965 24.9867 123.349 24.662C123.734 24.3373 123.926 23.893 123.926 23.3291C123.926 22.7139 123.742 22.2526 123.375 21.945C123.008 21.6374 122.491 21.4836 121.824 21.4836H117.518V18.2539H121.44C122.123 18.2539 122.636 18.1172 122.978 17.8438C123.32 17.5704 123.49 17.1432 123.49 16.5622C123.49 16.0325 123.315 15.6181 122.965 15.319C122.615 15.02 122.106 14.8705 121.44 14.8705H117.621ZM137.255 29.0451C135.717 29.0451 134.423 28.7632 133.372 28.1992C132.321 27.6353 131.522 26.7938 130.975 25.6745C130.428 24.5552 130.155 23.1582 130.155 21.4836V11.282H133.897V21.5605C133.897 22.7738 134.183 23.7179 134.756 24.3929C135.328 25.0679 136.161 25.4053 137.255 25.4053C138.349 25.4053 139.177 25.0679 139.741 24.3929C140.305 23.7179 140.587 22.7738 140.587 21.5605V11.282H144.355V21.4836C144.355 23.1582 144.082 24.5552 143.535 25.6745C142.988 26.7938 142.189 27.6353 141.138 28.1992C140.087 28.7632 138.793 29.0451 137.255 29.0451ZM155.223 29.0451C153.412 29.0451 151.844 28.6606 150.52 27.8917C149.195 27.1227 148.17 26.059 147.444 24.7004C146.718 23.3419 146.354 21.7826 146.354 20.0226C146.354 18.7068 146.572 17.4978 147.008 16.3956C147.444 15.2934 148.055 14.3365 148.841 13.5248C149.627 12.7131 150.562 12.0894 151.647 11.6536C152.733 11.2179 153.924 11 155.223 11C157.274 11 158.957 11.4443 160.273 12.3329C161.589 13.2215 162.597 14.486 163.297 16.1265L159.888 17.4337C159.324 16.4597 158.662 15.7463 157.902 15.2934C157.141 14.8406 156.248 14.6142 155.223 14.6142C154.249 14.6142 153.382 14.8406 152.621 15.2934C151.861 15.7463 151.263 16.3742 150.827 17.1774C150.391 17.9805 150.174 18.9289 150.174 20.0226C150.174 21.0991 150.391 22.0432 150.827 22.8549C151.263 23.6666 151.861 24.2946 152.621 24.7389C153.382 25.1832 154.249 25.4053 155.223 25.4053C156.248 25.4053 157.141 25.1832 157.902 24.7389C158.662 24.2946 159.324 23.5854 159.888 22.6114L163.297 23.9187C162.597 25.5591 161.589 26.8237 160.273 27.7122C158.957 28.6008 157.274 29.0451 155.223 29.0451ZM168.936 28.7375H165.194V11.282H168.936V28.7375ZM179.676 28.7375H174.806L167.604 20.3301V19.7406L175.037 11.282H179.676L171.5 20.5865L171.602 19.4587L179.676 28.7375ZM191.057 21.7656H183.88V18.2027H191.057V21.7656ZM192.467 14.8448H183.803L185.11 13.3325V26.6869L183.675 25.1746H192.467V28.7375H181.368V11.282H192.467V14.8448ZM202.72 28.7375H198.952V13.0506H202.72V28.7375ZM208 14.8961H193.774V11.282H208V14.8961Z" fill="black"/>
<path d="M22.4817 1.14478L30.3459 3.7635L32.8939 6.09911L37.0697 6.94842L40.2546 10.8411L41.2455 13.9553L45.6336 16.0786L46.7996 20.1836L43.5103 24.4302H6.49434L1.54297 21.1037V16.0786L4.79571 12.6105L8.40529 12.1859L10.7409 13.0337L11.0948 8.85939C11.0948 8.85939 15.6245 3.7635 15.9076 3.7635C16.1907 3.7635 22.4817 1.14478 22.4817 1.14478Z" fill="#F9F8FB"/>
<path d="M9.02147 24.5092C9.02147 24.5092 4.28958 22.3549 4.25373 18.9853C4.21788 15.6156 6.40459 14.7194 7.0857 14.3968C7.7668 14.0741 9.48749 13.8232 11.1006 14.7911C12.0851 15.3818 12.7552 15.7645 12.7552 15.7645C12.7552 15.7645 12.427 7.4423 19.7758 4.53864C27.1246 1.63497 32.2149 6.6895 32.2149 6.6895L27.9965 10.8236L27.8774 13.9666C27.8774 13.9666 29.0962 8.87621 34.3658 8.55358C39.6354 8.23095 40.0297 13.9666 40.0297 13.9666L43.3994 14.7911L45.6937 16.9419L46.088 21.3871L41.7146 25.1511L15.9401 24.9001L9.02147 24.5092Z" fill="#3D58D8"/>
<path d="M6.47123 25.9947C2.16329 24.6436 0.0706898 22.4958 0.000711067 18.0171C-0.0692676 13.5385 5.03918 9.33976 9.44784 11.2292C9.62029 8.64238 11.5248 4.96074 14.7852 2.56823C16.8169 1.07739 19.6155 0.220643 22.114 0.0325857C28.622 -0.457265 33.5711 4.72813 33.3106 5.35097C33.5945 5.28099 36.2427 4.58971 37.8592 5.9108C41.1482 7.94018 42.1279 11.2292 41.778 12.9087C42.2679 12.6288 48.426 13.7484 47.7962 19.6966C47.1664 25.6448 41.778 25.9947 41.778 25.9947C41.778 25.9947 7.85945 26.1581 6.47123 25.9947ZM7.13046 23.5041C10.7691 24.3206 42.3157 23.5041 42.3157 23.5041C42.3157 23.5041 47.3634 22.0689 44.79 16.8233C42.8106 13.6562 39.297 16.081 39.297 16.081C39.297 16.081 41.128 9.54874 35.9319 7.86618C30.7357 6.18362 28.0634 11.4292 27.9645 11.9736C27.6181 10.1426 29.3006 7.0249 31.2306 6.08465C29.9934 4.94645 25.1932 1.13595 19.9971 2.76902C14.8009 4.40209 11.2502 10.8725 11.4853 12.4685C12.8586 14.2129 12.8215 16.081 12.8215 16.081C12.8215 16.081 8.86251 11.6767 5.49739 13.6067C2.13228 15.5367 2.47336 18.9018 2.62183 20.04C2.77029 21.1782 4.53106 23.3803 7.13046 23.5041Z" fill="black"/>
<path d="M40.2624 28.5707C40.5396 28.5707 40.8064 28.676 41.0089 28.8654C41.309 29.146 41.6031 29.3838 41.3988 30.0478C41.1531 30.8464 39.2666 33.1726 38.0941 34.618C37.8862 34.8743 37.5682 35.0158 37.2385 34.9985C36.7636 34.9737 36.0469 34.9076 35.8596 34.5799C35.5296 34.0024 36.4233 33.052 37.2341 31.9168C37.8685 31.0285 38.4957 29.8877 39.2304 28.972C39.434 28.7183 39.7417 28.5707 40.067 28.5707L40.2624 28.5707ZM33.1454 28.5707C33.4226 28.5707 33.6894 28.676 33.8919 28.8654C34.192 29.146 34.4861 29.3838 34.2818 30.0478C34.0361 30.8464 32.1496 33.1726 30.9771 34.618C30.7691 34.8743 30.4511 35.0158 30.1215 34.9985C29.6466 34.9737 28.9298 34.9076 28.7426 34.5799C28.4126 34.0024 29.3062 33.052 30.117 31.9168C30.7515 31.0285 31.3786 29.8877 32.1134 28.972C32.3169 28.7183 32.6247 28.5707 32.9499 28.5707L33.1454 28.5707ZM26.0955 28.5707C26.3727 28.5707 26.6395 28.676 26.842 28.8654C27.1421 29.146 27.4362 29.3838 27.2319 30.0478C26.9862 30.8464 25.0997 33.1726 23.9272 34.618C23.7193 34.8743 23.4013 35.0158 23.0716 34.9985C22.5967 34.9737 21.88 34.9076 21.6927 34.5799C21.3627 34.0024 22.2563 33.052 23.0672 31.9168C23.7016 31.0285 24.3287 29.8877 25.0635 28.972C25.2671 28.7183 25.5748 28.5707 25.9001 28.5707L26.0955 28.5707ZM19.0792 28.5707C19.3564 28.5707 19.6232 28.676 19.8257 28.8654C20.1258 29.146 20.4199 29.3838 20.2156 30.0478C19.9699 30.8464 18.0834 33.1726 16.9109 34.618C16.7029 34.8743 16.3849 35.0158 16.0553 34.9985C15.5804 34.9737 14.8636 34.9076 14.6764 34.5799C14.3464 34.0024 15.24 33.052 16.0508 31.9168C16.6853 31.0285 17.3124 29.8877 18.0472 28.972C18.2507 28.7183 18.5584 28.5707 18.8837 28.5707L19.0792 28.5707ZM12.0964 28.5707C12.3736 28.5707 12.6405 28.676 12.8429 28.8654C13.143 29.146 13.4371 29.3838 13.2328 30.0478C12.9871 30.8464 11.1006 33.1726 9.92815 34.618C9.7202 34.8743 9.4022 35.0158 9.07256 34.9985C8.59766 34.9737 7.88089 34.9076 7.69364 34.5799C7.36366 34.0024 8.25728 33.052 9.0681 31.9168C9.70255 31.0285 10.3297 29.8877 11.0644 28.972C11.268 28.7183 11.5757 28.5707 11.901 28.5707L12.0964 28.5707Z" fill="#010000"/>
</svg>
