<svg width="27" height="39" viewBox="0 0 27 39" fill="none" xmlns="http://www.w3.org/2000/svg">
<path d="M3.2611 19.7672L24.3944 20.0724V22.5138L22.1437 22.8952C22.1437 22.8952 20.9993 37.2002 20.8467 37.3147C20.6941 37.4291 8.44905 37.5436 8.44905 37.5436L6.1221 37.3147L5.13029 34.5681L4.18111 22.5138H2.42188L2.65075 19.7672L3.2611 19.7672Z" fill="#FCF0D2"/>
<path d="M11.8803 20.1256C11.8803 20.1256 10.0493 21.804 10.5833 22.2237C11.1174 22.6433 5.54797 22.6814 5.54797 22.6814L7.22643 37.8256H20.3107L21.9892 22.6814L23.9347 22.2237V19.6451L11.8803 20.1256Z" fill="#F8BF2F"/>
<path d="M3.64205 23.3559C3.64205 23.3559 2.98988 23.3805 2.57605 23.2233C2.16222 23.066 2.02643 22.9915 1.96021 22.5943C1.894 22.197 1.96021 19.6147 1.96021 19.6147C1.96021 19.6147 2.22507 19.0188 2.85409 19.085C3.48312 19.1512 24.5058 19.085 24.5058 19.085C24.5058 19.085 25.0355 19.4491 25.0686 19.7471C25.1017 20.0451 25.0686 23.0578 25.0686 23.0578C25.0686 23.0578 24.8038 23.2895 24.5058 23.2233C24.2078 23.1571 23.6396 23.2233 23.6396 23.2233L22.6564 35.8144C22.6564 35.8144 22.4443 38.068 20.4559 38.2801C18.6063 38.4773 11.9626 38.3653 7.78015 38.2959C7.15855 38.2855 6.55282 38.0979 6.03422 37.755C5.54242 37.4299 5.05702 37.0772 4.81335 36.4507C4.44218 35.4962 3.64205 23.3559 3.64205 23.3559ZM3.43913 21.8654H23.6063V20.5311H3.43913V21.8654ZM4.95258 23.2386C4.83814 23.2386 5.71552 34.7208 5.8681 35.7507C6.02069 36.7807 7.43212 37.0859 7.43212 37.0859H19.6391L20.9742 23.2386C20.9742 23.2386 5.06702 23.2386 4.95258 23.2386Z" fill="#010000"/>
<path d="M2.3154 20.398L1.45224 20.0218C1.45224 20.0218 0.454529 19.7458 0.0512002 21.1044C-0.352129 22.463 1.74224 27.3029 2.3154 28.1733C2.88855 29.0436 6.32048 34.1489 12.6605 34.8671C19.0006 35.5853 23.191 30.3422 24.1881 28.9777C25.1853 27.6132 27.1008 23.3349 26.9959 21.1044C26.7782 19.8397 25.2773 19.9065 25.052 20.2284C24.8266 20.5503 25.0326 20.9757 25.8213 21.1044C26.6099 21.2332 26.3846 21.2696 26.3846 21.2696C26.3846 21.2696 24.7431 33.2424 13.4975 33.5235C2.37962 33.2168 0.684797 21.2696 0.684797 21.2696C0.684797 21.2696 0.855619 21.0641 1.20058 21.0327C1.54554 21.0014 1.82778 20.9543 2.01593 20.923C2.20409 20.8916 2.3154 20.398 2.3154 20.398Z" fill="#010000"/>
<path d="M13.5589 25.87L15.2225 29.0353L14.1478 30.9051L11.9836 30.5223L11.7775 28.7998L13.5589 25.87Z" fill="#3D58D8"/>
<path d="M12.757 27.332C12.757 27.332 12.6539 28.7012 12.757 29.2165C12.86 29.7318 13.254 30.6299 13.254 30.6299C13.254 30.6299 12.6539 30.5121 12.33 30.1882C12.0061 29.8643 12.0024 29.5919 12.0356 29.0251C12.1276 28.3994 12.757 27.332 12.757 27.332Z" fill="#FDECD8"/>
<path d="M13.4178 26.2401C13.4178 26.2401 14.685 28.3195 14.7413 29.1813C14.7976 30.043 14.0731 30.605 13.6228 30.6238C13.1724 30.6425 12.1028 30.5488 12.0277 29.2937C11.9527 28.0385 13.4178 26.2401 13.4178 26.2401ZM11.1565 29.494C11.2836 31.3351 13.0956 31.4725 13.8585 31.445C14.6214 31.4175 15.8487 30.5931 15.7533 29.3291C15.67 28.2253 14.6441 26.69 13.8592 25.5294C13.7762 25.4067 13.6408 25.3295 13.4929 25.3207C13.345 25.3118 13.2014 25.3723 13.1043 25.4843C12.1408 26.5959 11.0445 27.8721 11.1565 29.494Z" fill="#010001"/>
<path d="M12.638 0.588867L16.6834 1.93596L17.9941 3.13741L20.1421 3.57431L21.7805 5.57674L22.2902 7.17868L24.5475 8.27091L25.1473 10.3826L23.4552 12.567H4.41396L1.86694 10.8559V8.27092L3.54017 6.48693L5.39697 6.26849L6.59843 6.7046L6.78047 4.55732C6.78047 4.55732 9.11057 1.93596 9.2562 1.93596C9.40183 1.93596 12.638 0.588867 12.638 0.588867Z" fill="#F9F8FB"/>
<path d="M5.71389 12.6077C5.71389 12.6077 3.27977 11.4995 3.26133 9.76615C3.24289 8.03277 4.36775 7.57176 4.71812 7.40579C5.06848 7.23983 5.95362 7.11075 6.78343 7.60864C7.28987 7.9125 7.63456 8.1094 7.63456 8.1094C7.63456 8.1094 7.46573 3.82837 11.246 2.33471C15.0263 0.841043 17.6448 3.44113 17.6448 3.44113L15.4748 5.56772L15.4135 7.18451C15.4135 7.18451 16.0405 4.56599 18.7512 4.40002C21.4619 4.23406 21.6648 7.18451 21.6648 7.18451L23.3982 7.60864L24.5783 8.71506L24.7812 11.0017L22.5315 12.9379L9.27288 12.8088L5.71389 12.6077Z" fill="#3D58D8"/>
<path d="M4.40197 13.3719C2.18593 12.6769 1.10948 11.572 1.07349 9.26814C1.03749 6.96429 3.66531 4.80444 5.93316 5.77637C6.02187 4.4457 7.00154 2.55184 8.67875 1.32112C9.72387 0.554217 11.1635 0.1135 12.4487 0.0167623C15.7965 -0.235221 18.3423 2.43219 18.2083 2.75258C18.3544 2.71658 19.7166 2.36098 20.5482 3.04056C22.2401 4.08449 22.744 5.77637 22.564 6.64031C22.816 6.49632 25.9838 7.07229 25.6598 10.1321C25.3358 13.1919 22.564 13.3719 22.564 13.3719C22.564 13.3719 5.11608 13.4559 4.40197 13.3719ZM4.74108 12.0907C6.61281 12.5107 22.8406 12.0907 22.8406 12.0907C22.8406 12.0907 25.4372 11.3524 24.1134 8.65404C23.0952 7.02483 21.2878 8.27219 21.2878 8.27219C21.2878 8.27219 22.2297 4.91194 19.5567 4.04642C16.8838 3.1809 15.5092 5.87929 15.4582 6.15931C15.2801 5.21742 16.1456 3.61366 17.1384 3.12999C16.502 2.54449 14.0327 0.584342 11.3598 1.42441C8.68683 2.26447 6.86033 5.5929 6.98125 6.41387C7.68766 7.31121 7.66857 8.27219 7.66857 8.27219C7.66857 8.27219 5.63206 6.00657 3.90102 6.99937C2.16998 7.99217 2.34544 9.72321 2.42181 10.3087C2.49818 10.8942 3.40393 12.027 4.74108 12.0907Z" fill="black"/>
<path d="M21.7844 14.697C21.927 14.697 22.0643 14.7512 22.1684 14.8486C22.3228 14.993 22.4741 15.1153 22.369 15.4569C22.2426 15.8676 21.2722 17.0643 20.669 17.8078C20.5621 17.9397 20.3985 18.0124 20.2289 18.0036C19.9846 17.9908 19.6159 17.9568 19.5196 17.7882C19.3499 17.4911 19.8095 17.0022 20.2266 16.4183C20.553 15.9613 20.8756 15.3745 21.2536 14.9035C21.3583 14.773 21.5166 14.697 21.6839 14.697L21.7844 14.697ZM18.1234 14.697C18.266 14.697 18.4032 14.7512 18.5074 14.8486C18.6618 14.993 18.813 15.1153 18.708 15.4569C18.5816 15.8677 17.6111 17.0643 17.008 17.8078C16.901 17.9397 16.7374 18.0124 16.5679 18.0036C16.3236 17.9908 15.9549 17.9568 15.8585 17.7882C15.6888 17.4911 16.1485 17.0023 16.5656 16.4183C16.8919 15.9613 17.2145 15.3745 17.5925 14.9035C17.6972 14.773 17.8555 14.697 18.0228 14.697L18.1234 14.697ZM14.4969 14.697C14.6395 14.697 14.7767 14.7512 14.8809 14.8486C15.0352 14.993 15.1865 15.1153 15.0814 15.4569C14.955 15.8677 13.9846 17.0643 13.3815 17.8078C13.2745 17.9397 13.1109 18.0124 12.9414 18.0036C12.6971 17.9908 12.3284 17.9568 12.232 17.7882C12.0623 17.4911 12.522 17.0023 12.9391 16.4183C13.2654 15.9613 13.588 15.3745 13.966 14.9035C14.0707 14.773 14.229 14.697 14.3963 14.697L14.4969 14.697ZM10.8876 14.697C11.0302 14.697 11.1675 14.7512 11.2716 14.8486C11.426 14.993 11.5773 15.1153 11.4722 15.4569C11.3458 15.8677 10.3754 17.0643 9.77224 17.8078C9.66527 17.9397 9.50169 18.0124 9.33212 18.0036C9.08782 17.9908 8.71911 17.9568 8.62279 17.7882C8.45305 17.4911 8.91273 17.0023 9.32982 16.4183C9.65619 15.9613 9.97879 15.3745 10.3567 14.9035C10.4615 14.773 10.6198 14.697 10.7871 14.697L10.8876 14.697ZM7.29565 14.697C7.43824 14.697 7.57551 14.7512 7.67965 14.8486C7.83402 14.993 7.98531 15.1153 7.88022 15.4569C7.75382 15.8677 6.7834 17.0643 6.18027 17.8078C6.0733 17.9397 5.90971 18.0124 5.74015 18.0036C5.49585 17.9908 5.12714 17.9568 5.03082 17.7882C4.86107 17.4911 5.32076 17.0023 5.73785 16.4183C6.06422 15.9613 6.38682 15.3745 6.76477 14.9035C6.86949 14.773 7.02778 14.697 7.19511 14.697L7.29565 14.697Z" fill="#010000"/>
</svg>
